<?xml version="1.0" encoding="utf-8"?>
<!-- Generator: Adobe Illustrator 26.0.0, SVG Export Plug-In . SVG Version: 6.00 Build 0)  -->
<svg version="1.1" id="Camada_1" xmlns="http://www.w3.org/2000/svg" xmlns:xlink="http://www.w3.org/1999/xlink" x="0px" y="0px"
	 viewBox="0 0 14.6 21.5" style="enable-background:new 0 0 14.6 21.5;" xml:space="preserve">
<style type="text/css">
	.st0{fill:#3F3E3F;}
</style>
<path class="st0" d="M7.3,0c2.2,3.6,4.4,7.1,6.4,10.8c1.6,3.1,0.8,7-2,9.2c-2.6,2.1-6.3,2.1-8.9,0c-2.8-2.1-3.6-6-2-9.1
	C2.8,7.2,5.1,3.6,7.3,0z M7.3,1.8c-1.5,2.4-3,4.7-4.5,7.1c-0.4,0.6-0.7,1.2-1,1.8c-0.2,0.3-0.3,0.7-0.5,1c-1.4,3.5,0.3,7.4,3.8,8.7
	h0.1c3.3,1.2,7-0.6,8.2-3.9c0-0.1,0.1-0.2,0.1-0.2c0.7-1.8,0.5-3.9-0.6-5.5C11,7.7,9.2,4.8,7.3,1.8L7.3,1.8z"/>
<path class="st0" d="M3.3,9.4c-0.8,3.1-0.4,5.8,1.9,7.9c1.8,1.6,4.4,2,6.5,0.8C10.3,20.2,6.4,20.8,4,19C1,16.7,0.7,12.9,3.3,9.4z"/>
</svg>
